<svg width="138" height="51" viewBox="0 0 138 51" fill="none" xmlns="http://www.w3.org/2000/svg">
<path d="M70.36 39.3248C68.2267 39.3248 66.6133 38.7248 65.52 37.5248C64.4267 36.2981 63.88 34.5515 63.88 32.2848V30.6848H68.04V32.6048C68.04 34.4181 68.8 35.3248 70.32 35.3248C71.0667 35.3248 71.6267 35.1115 72 34.6848C72.4 34.2315 72.6 33.5115 72.6 32.5248C72.6 31.3515 72.3333 30.3248 71.8 29.4448C71.2667 28.5381 70.28 27.4581 68.84 26.2048C67.0267 24.6048 65.76 23.1648 65.04 21.8848C64.32 20.5781 63.96 19.1115 63.96 17.4848C63.96 15.2715 64.52 13.5648 65.64 12.3648C66.76 11.1381 68.3867 10.5248 70.52 10.5248C72.6267 10.5248 74.2133 11.1381 75.28 12.3648C76.3733 13.5648 76.92 15.2981 76.92 17.5648V18.7248H72.76V17.2848C72.76 16.3248 72.5733 15.6315 72.2 15.2048C71.8267 14.7515 71.28 14.5248 70.56 14.5248C69.0933 14.5248 68.36 15.4181 68.36 17.2048C68.36 18.2181 68.6267 19.1648 69.16 20.0448C69.72 20.9248 70.72 21.9915 72.16 23.2448C74 24.8448 75.2667 26.2981 75.96 27.6048C76.6533 28.9115 77 30.4448 77 32.2048C77 34.4981 76.4267 36.2581 75.28 37.4848C74.16 38.7115 72.52 39.3248 70.36 39.3248ZM79.5228 10.9248H86.0028C88.1895 10.9248 89.8295 11.5115 90.9228 12.6848C92.0161 13.8581 92.5628 15.5781 92.5628 17.8448V20.6048C92.5628 22.8715 92.0161 24.5915 90.9228 25.7648C89.8295 26.9381 88.1895 27.5248 86.0028 27.5248H83.9228V38.9248H79.5228V10.9248ZM86.0028 23.5248C86.7228 23.5248 87.2561 23.3248 87.6028 22.9248C87.9761 22.5248 88.1628 21.8448 88.1628 20.8848V17.5648C88.1628 16.6048 87.9761 15.9248 87.6028 15.5248C87.2561 15.1248 86.7228 14.9248 86.0028 14.9248H83.9228V23.5248H86.0028ZM96.9463 10.9248H102.906L107.466 38.9248H103.066L102.266 33.3648V33.4448H97.2663L96.4663 38.9248H92.3863L96.9463 10.9248ZM101.746 29.6448L99.7863 15.8048H99.7063L97.7862 29.6448H101.746ZM115.723 39.3248C113.616 39.3248 112.003 38.7248 110.883 37.5248C109.789 36.3248 109.243 34.6315 109.243 32.4448V17.4048C109.243 15.2181 109.789 13.5248 110.883 12.3248C112.003 11.1248 113.616 10.5248 115.723 10.5248C117.829 10.5248 119.429 11.1248 120.523 12.3248C121.643 13.5248 122.203 15.2181 122.203 17.4048V20.3648H118.043V17.1248C118.043 15.3915 117.309 14.5248 115.843 14.5248C114.376 14.5248 113.643 15.3915 113.643 17.1248V32.7648C113.643 34.4715 114.376 35.3248 115.843 35.3248C117.309 35.3248 118.043 34.4715 118.043 32.7648V28.4848H122.203V32.4448C122.203 34.6315 121.643 36.3248 120.523 37.5248C119.429 38.7248 117.829 39.3248 115.723 39.3248ZM124.835 10.9248H136.835V14.9248H129.235V22.3248H135.275V26.3248H129.235V34.9248H136.835V38.9248H124.835V10.9248Z" fill="white"/>
<path d="M29.5166 37.0137C24.8547 37.0137 20.6166 35.1296 17.5353 32.0854C16.3042 32.2518 15.1106 32.3766 13.9625 32.4639C17.6266 37.0094 23.237 39.9248 29.5168 39.9248C40.2257 39.9248 48.9886 31.4532 49.4584 20.8608C48.4975 21.4928 47.4538 22.1208 46.3434 22.7364C45.0123 30.8253 37.9756 37.0137 29.5166 37.0137Z" fill="white"/>
<path d="M42.1135 24.8656C38.749 26.4168 34.9769 27.8433 31.0053 29.0577C27.9983 29.9767 25.0164 30.7337 22.1593 31.3035C24.2765 32.6801 26.8006 33.4785 29.5165 33.4785C35.2514 33.4785 40.1507 29.9062 42.1135 24.8656Z" fill="white"/>
<path d="M56.1954 10.0602C55.3384 7.2572 51.5623 5.81801 45.2992 5.88059C45.1786 5.88059 45.058 5.88458 44.9332 5.88458C45.765 6.79135 46.5175 7.77694 47.1747 8.82069C51.3253 9.012 53.1384 10.0184 53.413 10.9125C53.6941 11.8274 52.6884 13.7518 49.1438 16.3277C47.4018 6.89826 39.0177 -0.226698 29.043 0.00551707C18.7597 0.244859 10.2529 8.39319 9.59584 18.6582C9.37061 22.1758 10.064 25.5152 11.4593 28.4613C11.3208 28.4643 11.1794 28.4698 11.043 28.4713C5.57849 28.5378 3.27003 27.3649 2.95812 26.3503C2.55485 25.0277 4.55954 22.6323 8.62251 19.9831V19.9624C8.62251 18.7272 8.73056 17.5211 8.93854 16.3442C2.91265 19.8542 -0.880188 23.7594 0.17611 27.203C1.01188 29.9435 4.63423 31.3866 10.652 31.3866C10.7893 31.3866 10.9305 31.3826 11.0724 31.3826C16.6867 31.3203 23.7691 30.0683 31.0055 27.8516C38.2461 25.6392 44.8169 22.7157 49.5038 19.6213C54.7399 16.1695 57.052 12.8631 56.1954 10.0602ZM12.4889 19.0537C12.9521 10.1742 20.3041 3.07919 29.1941 2.91412C38.1089 2.74862 45.5166 9.46573 46.4595 18.0953C45.3955 18.7362 44.2506 19.3671 43.0322 19.9831C43.0322 19.9763 43.0326 19.9693 43.0326 19.9624C43.0326 18.0477 42.6356 16.2282 41.9189 14.579C41.4951 13.604 40.1197 13.5287 39.6051 14.4591C38.5476 16.3713 36.4446 17.6252 34.0682 17.451C31.2284 17.2429 28.9208 14.9452 28.7024 12.1062C28.5753 10.453 29.1381 8.93203 30.1332 7.80103C30.5978 7.27302 30.2409 6.4468 29.5377 6.44637H29.5164C22.0512 6.44637 16.0002 12.4974 16.0002 19.9626C16.0002 22.8834 16.9299 25.5831 18.5077 27.7956C17.1718 28.0041 15.8783 28.1652 14.6356 28.2781C13.1161 25.5715 12.3137 22.4123 12.4889 19.0537ZM27.1799 20.2176C27.0315 18.8011 28.135 17.6084 29.5164 17.6084C30.814 17.6084 31.8664 18.6607 31.8664 19.9623C31.8664 21.3519 30.6597 22.4598 29.2373 22.2958C28.1625 22.1721 27.2926 21.2936 27.1799 20.2176Z" fill="url(#paint0_linear_10_62)"/>
<defs>
<linearGradient id="paint0_linear_10_62" x1="28.1849" y1="0" x2="28.1849" y2="31.3866" gradientUnits="userSpaceOnUse">
<stop stop-color="#FF1B30"/>
<stop offset="1" stop-color="#FF9313"/>
</linearGradient>
</defs>
</svg>
