<svg width="74" height="30" viewBox="0 0 74 30" fill="none" xmlns="http://www.w3.org/2000/svg">
<path d="M7.36 29.3248C5.22667 29.3248 3.61333 28.7248 2.52 27.5248C1.42667 26.2981 0.88 24.5515 0.88 22.2848V20.6848H5.04V22.6048C5.04 24.4181 5.8 25.3248 7.32 25.3248C8.06667 25.3248 8.62667 25.1115 9 24.6848C9.4 24.2315 9.6 23.5115 9.6 22.5248C9.6 21.3515 9.33333 20.3248 8.8 19.4448C8.26667 18.5381 7.28 17.4581 5.84 16.2048C4.02667 14.6048 2.76 13.1648 2.04 11.8848C1.32 10.5781 0.96 9.11147 0.96 7.4848C0.96 5.27147 1.52 3.5648 2.64 2.3648C3.76 1.13814 5.38667 0.524803 7.52 0.524803C9.62667 0.524803 11.2133 1.13814 12.28 2.3648C13.3733 3.5648 13.92 5.29814 13.92 7.5648V8.7248H9.76V7.2848C9.76 6.3248 9.57333 5.63147 9.2 5.2048C8.82667 4.75147 8.28 4.5248 7.56 4.5248C6.09333 4.5248 5.36 5.41814 5.36 7.2048C5.36 8.21814 5.62667 9.1648 6.16 10.0448C6.72 10.9248 7.72 11.9915 9.16 13.2448C11 14.8448 12.2667 16.2981 12.96 17.6048C13.6533 18.9115 14 20.4448 14 22.2048C14 24.4981 13.4267 26.2581 12.28 27.4848C11.16 28.7115 9.52 29.3248 7.36 29.3248ZM16.5228 0.924803H23.0028C25.1895 0.924803 26.8295 1.51147 27.9228 2.6848C29.0161 3.85814 29.5628 5.57814 29.5628 7.8448V10.6048C29.5628 12.8715 29.0161 14.5915 27.9228 15.7648C26.8295 16.9381 25.1895 17.5248 23.0028 17.5248H20.9228V28.9248H16.5228V0.924803ZM23.0028 13.5248C23.7228 13.5248 24.2561 13.3248 24.6028 12.9248C24.9761 12.5248 25.1628 11.8448 25.1628 10.8848V7.5648C25.1628 6.6048 24.9761 5.9248 24.6028 5.5248C24.2561 5.1248 23.7228 4.9248 23.0028 4.9248H20.9228V13.5248H23.0028ZM33.9463 0.924803H39.9063L44.4663 28.9248H40.0663L39.2663 23.3648V23.4448H34.2663L33.4663 28.9248H29.3863L33.9463 0.924803ZM38.7463 19.6448L36.7863 5.8048H36.7063L34.7862 19.6448H38.7463ZM52.7228 29.3248C50.6161 29.3248 49.0028 28.7248 47.8828 27.5248C46.7895 26.3248 46.2428 24.6315 46.2428 22.4448V7.4048C46.2428 5.21814 46.7895 3.5248 47.8828 2.3248C49.0028 1.1248 50.6161 0.524803 52.7228 0.524803C54.8295 0.524803 56.4295 1.1248 57.5228 2.3248C58.6428 3.5248 59.2028 5.21814 59.2028 7.4048V10.3648H55.0428V7.1248C55.0428 5.39147 54.3095 4.5248 52.8428 4.5248C51.3761 4.5248 50.6428 5.39147 50.6428 7.1248V22.7648C50.6428 24.4715 51.3761 25.3248 52.8428 25.3248C54.3095 25.3248 55.0428 24.4715 55.0428 22.7648V18.4848H59.2028V22.4448C59.2028 24.6315 58.6428 26.3248 57.5228 27.5248C56.4295 28.7248 54.8295 29.3248 52.7228 29.3248ZM61.8353 0.924803H73.8353V4.9248H66.2353V12.3248H72.2753V16.3248H66.2353V24.9248H73.8353V28.9248H61.8353V0.924803Z" fill="white"/>
</svg>
